<svg width="57" height="57" viewBox="0 0 57 57" fill="none" xmlns="http://www.w3.org/2000/svg">
<path d="M10.272 21.375H46.7283L44.7095 14.25H12.3501L10.272 21.375ZM39.9001 26.125H17.1595L16.5064 30.875H40.4939L39.9001 26.125ZM9.50013 47.5L12.4095 26.125H7.12513C6.33346 26.125 5.70963 25.8083 5.25363 25.175C4.79921 24.5417 4.67096 23.849 4.86888 23.0969L8.25325 11.2219C8.41159 10.7073 8.68867 10.2917 9.08451 9.975C9.48034 9.65833 9.95534 9.5 10.5095 9.5H46.4908C47.0449 9.5 47.5199 9.65833 47.9158 9.975C48.3116 10.2917 48.5887 10.7073 48.747 11.2219L52.1314 23.0969C52.3293 23.849 52.201 24.5417 51.7466 25.175C51.2906 25.8083 50.6668 26.125 49.8751 26.125H44.6501L47.5001 47.5H42.7501L41.147 35.625H15.8533L14.2501 47.5H9.50013Z" fill="#57C6CD"/>
</svg>
