<svg width="35" height="35" viewBox="0 0 35 35" fill="none" xmlns="http://www.w3.org/2000/svg">
<path d="M17.4998 29.1666C23.9165 29.1666 29.1665 23.9166 29.1665 17.5C29.1665 11.0833 23.9165 5.83329 17.4998 5.83329C11.0832 5.83329 5.83317 11.0833 5.83317 17.5C5.83317 23.9166 11.0832 29.1666 17.4998 29.1666ZM17.4998 2.91663C25.5207 2.91663 32.0832 9.47913 32.0832 17.5C32.0832 25.5208 25.5207 32.0833 17.4998 32.0833C9.479 32.0833 2.9165 25.5208 2.9165 17.5C2.9165 9.47913 9.479 2.91663 17.4998 2.91663ZM18.229 18.6666L11.229 22.75L10.2082 20.7083L16.0415 17.3541V10.2083H18.229V18.6666Z" fill="#57C6CD"/>
</svg>
