<svg width="32" height="40" viewBox="0 0 32 40" fill="none" xmlns="http://www.w3.org/2000/svg">
<path d="M15.6739 19.9448C16.7515 19.9448 17.6743 19.5539 18.4423 18.7721C19.209 17.9916 19.5924 17.0528 19.5924 15.9559C19.5924 14.8589 19.209 13.9195 18.4423 13.1377C17.6743 12.3572 16.7515 11.9669 15.6739 11.9669C14.5963 11.9669 13.6742 12.3572 12.9075 13.1377C12.1394 13.9195 11.7554 14.8589 11.7554 15.9559C11.7554 17.0528 12.1394 17.9916 12.9075 18.7721C13.6742 19.5539 14.5963 19.9448 15.6739 19.9448ZM15.6739 39.8897C10.4166 35.3356 6.49031 31.1053 3.89497 27.1988C1.29832 23.2936 0 19.6789 0 16.3548C0 11.3686 1.57588 7.39621 4.72764 4.43772C7.8781 1.47924 11.5269 0 15.6739 0C19.821 0 23.4697 1.47924 26.6202 4.43772C29.7719 7.39621 31.3478 11.3686 31.3478 16.3548C31.3478 19.6789 30.0502 23.2936 27.4548 27.1988C24.8582 31.1053 20.9312 35.3356 15.6739 39.8897Z" fill="#57C6CD"/>
</svg>
